<svg xmlns="http://www.w3.org/2000/svg" width="88" height="88" data-name="Layer 1" id="dialog"><path fill="#040000" d="M43.51 62.45a5.61 5.61 0 0 1-4-1.64l-3.39-3.4h-8a5.49 5.49 0 0 1-5.45-5.55V31.1a5.5 5.5 0 0 1 5.45-5.55H59.8A5.52 5.52 0 0 1 65.25 31v20.86a5.51 5.51 0 0 1-5.45 5.56h-9l-3.47 3.47a5.4 5.4 0 0 1-3.82 1.56Zm-15.31-33a1.64 1.64 0 0 0-1.58 1.69v20.72a1.65 1.65 0 0 0 1.58 1.69H37a2 2 0 0 1 1.37.57l4 4a1.66 1.66 0 0 0 2.33.07l4-4a1.93 1.93 0 0 1 1.3-.64h9.8a1.65 1.65 0 0 0 1.58-1.69V31.07a1.65 1.65 0 0 0-1.58-1.66Z"></path><path d="M31.45 42.21a2.9 2.9 0 1 0 2.89-2.9 2.89 2.89 0 0 0-2.89 2.9zm9.65 0a2.9 2.9 0 0 0 5.8 0 2.9 2.9 0 0 0-5.8 0zm9.66 0a2.9 2.9 0 1 0 2.9-2.9 2.9 2.9 0 0 0-2.9 2.9z"></path></svg>